<?xml version="1.0" encoding="utf-8"?>
<svg version="1.1" xmlns="http://www.w3.org/2000/svg" x="0px" y="0px"
	 viewBox="0 0 32 32" style="enable-background:new 0 0 32 32;" xml:space="preserve">
<style type="text/css">
	.st0{fill:#CED0D6;}
</style>
<g>
	<path class="st0" d="M16,4c6.6,0,12,5.4,12,12s-5.4,12-12,12S4,22.6,4,16S9.4,4,16,4 M16,2C8.3,2,2,8.3,2,16s6.3,14,14,14
		s14-6.3,14-14S23.7,2,16,2L16,2z"/>
</g>
<g>
	<path class="st0" d="M16,3.4c2.6,0,5.2,0.8,7.5,2.5l-11.3,7l-6.6-4c0.1-0.1,0.2-0.2,0.2-0.3C8.4,5.2,12.2,3.4,16,3.4 M16,2.4
		c-4.3,0-8.4,2.1-10.9,5.5C5,8,4.9,8.1,4.8,8.2L4.2,9.1l0.9,0.6l6.6,4l0.5,0.3l0.5-0.3l11.3-7L25.3,6l-1.2-0.9
		C21.8,3.3,18.9,2.4,16,2.4L16,2.4z"/>
</g>
<g>
	<path class="st0" d="M5.7,8.8l6.6,4l-8.6,5.3c-0.1-0.7-0.2-1.4-0.2-2.2C3.4,13.4,4.2,10.9,5.7,8.8 M5.4,7.5L4.8,8.2
		c-1.6,2.3-2.4,5-2.4,7.8c0,0.8,0.1,1.6,0.2,2.3l0.3,1.5L4.1,19l8.6-5.3l1.4-0.9L12.7,12L6.2,8L5.4,7.5L5.4,7.5z"/>
</g>
<g>
	<path class="st0" d="M23.5,5.9c5,3.7,6.5,10.6,3.6,16.1l-14.9-9.2L23.5,5.9 M23.6,4.7L23,5l-11.3,7l-1.4,0.9l1.4,0.9l14.9,9.2
		l0.9,0.6l0.5-0.9c3.2-5.9,1.6-13.4-3.8-17.4L23.6,4.7L23.6,4.7z"/>
</g>
<g>
	<path class="st0" d="M12.2,12.9L27.1,22c-1.8,3.4-5.1,5.7-8.9,6.4c-0.7,0.1-1.5,0.2-2.2,0.2c-6,0-11.3-4.3-12.4-10.4L12.2,12.9
		 M12.2,11.7L11.7,12l-8.6,5.3l-0.6,0.4l0.1,0.7C3.7,24.9,9.4,29.6,16,29.6c0.8,0,1.6-0.1,2.4-0.2c4.1-0.7,7.6-3.2,9.6-6.9l0.5-0.8
		l-0.8-0.5L12.7,12L12.2,11.7L12.2,11.7z"/>
</g>
</svg>
